<svg width="372" height="372" viewBox="0 0 372 372" fill="none" xmlns="http://www.w3.org/2000/svg">
<g clip-path="url(#clip0_12_4566)">
<rect width="372" height="372" rx="186" fill="#F9F9F9"/>
<rect width="595.2" height="372" transform="translate(-126.952)" fill="#1A1818"/>
<g filter="url(#filter0_f_12_4566)">
<ellipse cx="283.087" cy="333.769" rx="219.763" ry="121.287" transform="rotate(-6.48121 283.087 333.769)" fill="#67D6F9"/>
</g>
<g filter="url(#filter1_f_12_4566)">
<path d="M329.781 306.398C355.804 291.09 364.473 274.341 384.305 251.568C422.588 207.607 426.453 169.112 467.183 127.411C550.291 42.3217 469.313 391.877 351.708 409.27C277.777 420.204 106.215 353.232 177.39 330.414C205.815 321.301 224.253 331.961 253.752 327.423C284.197 322.739 303.223 322.021 329.781 306.398Z" fill="url(#paint0_linear_12_4566)"/>
</g>
<g clip-path="url(#clip1_12_4566)">
<path d="M146.184 316.283L158.499 319.469L160.716 310.91L166.658 312.45L160.315 336.988C155.682 338.358 151.449 338.328 147.338 337.265C143.228 336.203 139.565 334.186 136.163 330.754L142.505 306.215L148.401 307.739L146.184 316.298V316.283ZM157.16 324.657L144.845 321.471L142.967 328.721C144.706 330.292 146.553 331.277 148.724 331.846C150.956 332.416 153.034 332.447 155.282 331.908L157.16 324.657Z" fill="white"/>
<path d="M125.033 319.192L133.915 302.212L138.949 304.845L125.88 329.815L120.523 327.013L117.736 303.921L108.854 320.901L103.821 318.269L116.89 293.299L122.247 296.101L125.033 319.192Z" fill="white"/>
<path d="M104.683 282.477C107.962 285.294 110.578 288.912 112.133 293.53L97.463 310.602C92.6602 309.756 88.704 307.708 85.4251 304.891C82.1771 302.105 79.5755 298.487 78.0054 293.869L92.6756 276.796C97.4784 277.643 101.435 279.69 104.683 282.477ZM94.9847 283.585L85.0711 295.115C85.9024 297.317 87.2878 299.103 89.0735 300.642C90.8899 302.197 92.8603 303.305 95.1694 303.798L105.083 292.268C104.252 290.066 102.866 288.28 101.05 286.71C99.2641 285.186 97.3091 284.078 95 283.585H94.9847Z" fill="white"/>
<path d="M73.341 278.767L88.7963 267.421L92.1521 272.009L69.431 288.681L65.8597 283.801L73.5257 261.848L58.0704 273.194L54.7146 268.606L77.4357 251.934L81.0071 256.814L73.341 278.767Z" fill="white"/>
<path d="M55.9768 234.261L63.4274 237.233L69.6003 235.062L71.663 240.896L45.0781 250.272L43.0307 244.437L56.3001 239.757L39.0129 233.045L36.6885 226.456L50.2811 231.506L62.8886 216.004L65.3054 222.854L55.9922 234.277L55.9768 234.261Z" fill="white"/>
<path d="M60.2102 194.313L62.9965 214.233L35.0723 218.143L34.2102 212.017L56.9006 208.845L54.9763 195.037L60.2102 194.313Z" fill="white"/>
<path d="M61.4417 180.258C61.18 184.63 59.8561 188.663 57.193 192.389L31.8857 190.88L32.2552 184.707L53.9142 186C55.1457 184.214 55.7152 182.305 55.8538 179.919C55.9923 177.533 55.6691 175.563 54.6377 173.7L32.9787 172.407L33.3481 166.234L58.6554 167.742C60.8567 171.76 61.688 175.917 61.4417 180.243V180.258Z" fill="white"/>
<path d="M65.7981 154.134C64.7052 157.859 63.5352 161.077 62.1652 164.155L35.103 156.258C35.611 153.21 36.3191 149.654 37.4121 145.944C38.9361 140.71 41.3991 136.446 44.6625 133.644L52.8366 136.03C53.6063 137.893 53.868 140.048 53.8064 142.188C54.9763 140.14 56.4387 138.308 58.2244 137.046L66.3985 139.432C67.6762 143.558 67.3221 148.823 65.7673 154.134H65.7981ZM48.2647 153.672L49.6193 149.038C50.4352 146.267 50.5583 143.573 49.9118 141.603L45.971 140.448C44.3085 141.988 43 144.189 42.1841 146.96C41.7377 148.515 41.2297 150.531 41.0758 151.563L48.2647 153.657V153.672ZM52.421 154.888L59.656 156.997C60.087 155.996 60.7952 153.903 61.257 152.302C62.119 149.361 62.3653 146.714 61.765 144.466L57.7318 143.296C56.0385 144.728 54.6838 147.145 53.8372 150.054L52.421 154.903V154.888Z" fill="white"/>
<path d="M59.9641 122.544L67.3685 109.89L71.571 112.353L64.1512 125.007L59.9487 122.544H59.9641Z" fill="white"/>
<path d="M94.6305 89.1541L85.7175 98.2214L92.029 104.41L87.7341 108.782L69.6465 91.0322C70.7856 86.337 72.91 82.6731 75.8809 79.6558C78.8519 76.6385 82.4387 74.4679 87.103 73.2363L105.191 90.9861L100.927 95.3273L94.6151 89.1387L94.6305 89.1541ZM81.8845 94.4652L90.7975 85.3979L85.4558 80.1484C83.2237 80.8719 81.4535 81.9649 79.8833 83.5814C78.267 85.2286 77.2048 87.0143 76.5583 89.2311L81.8999 94.4806L81.8845 94.4652Z" fill="white"/>
<path d="M102.666 69.3568L112.965 85.5209L108.177 88.569L93.0298 64.8001L98.1251 61.5519L119.538 70.6346L109.239 54.4705L114.027 51.4224L129.174 75.1913L124.079 78.4395L102.666 69.3568Z" fill="white"/>
<path d="M144.614 70.0035C140.535 71.4352 136.101 71.897 131.329 70.958L123.863 49.7291C127.004 46.0037 130.729 43.5868 134.824 42.1397C138.857 40.7234 143.29 40.2616 148.078 41.2006L155.544 62.4295C152.403 66.1549 148.678 68.5719 144.629 70.0035H144.614ZM148.493 61.044L143.444 46.7118C141.12 46.3424 138.888 46.6502 136.671 47.42C134.423 48.2051 132.484 49.3751 130.898 51.13L135.947 65.4622C138.272 65.8317 140.504 65.5238 142.767 64.7387C144.983 63.9689 146.908 62.799 148.493 61.044Z" fill="white"/>
<path d="M163.517 44.7104L165.596 63.7686L159.946 64.3844L156.898 36.3512L162.902 35.7047L178.065 53.3313L175.986 34.273L181.636 33.6572L184.684 61.6904L178.68 62.337L163.517 44.7104Z" fill="white"/>
<path d="M210.684 51.915L204.403 56.9028L203.218 63.3376L197.137 62.2138L202.248 34.4885L208.329 35.6123L205.773 49.4519L220.213 37.7983L227.094 39.0607L215.933 48.3281L223.091 66.9861L215.949 65.6622L210.684 51.8996V51.915Z" fill="white"/>
<path d="M243.226 75.4993L224.569 67.9868L235.098 41.8472L240.825 44.1563L232.266 65.4006L245.196 70.6039L243.226 75.4993Z" fill="white"/>
<path d="M254.787 83.5967C251.138 81.1798 248.306 78.024 246.413 73.8521L260.39 52.7002L265.547 56.1024L253.586 74.2062C254.51 76.1612 255.88 77.6083 257.866 78.9322C259.851 80.2561 261.729 80.9489 263.854 80.9951L275.815 62.8913L280.972 66.2934L266.994 87.4453C262.422 87.3376 258.389 85.9829 254.787 83.5967Z" fill="white"/>
<path d="M275.199 100.438C272.521 97.6364 270.304 95.0039 268.333 92.2791L288.699 72.7744C291.085 74.7449 293.81 77.131 296.489 79.9328C300.26 83.8738 302.723 88.138 303.524 92.3715L297.366 98.2675C295.365 98.0058 293.364 97.1591 291.547 96.0353C292.748 98.0674 293.595 100.253 293.795 102.439L287.637 108.335C283.419 107.381 279.048 104.441 275.214 100.438H275.199ZM281.233 88.4767L275.784 93.68C276.431 94.5575 277.893 96.2201 279.048 97.4208C281.172 99.6376 283.342 101.177 285.59 101.777L288.622 98.8833C288.222 96.6973 286.806 94.3112 284.712 92.1252L281.218 88.4767H281.233ZM284.358 85.4748L287.699 88.9539C289.7 91.0322 291.963 92.4946 293.995 92.9257L296.966 90.0931C296.473 87.8763 295.211 85.6595 293.21 83.5659C292.086 82.3959 290.593 80.9488 289.777 80.3023L284.374 85.4748H284.358Z" fill="white"/>
<path d="M305.494 111.153L312.775 123.884L308.542 126.301L301.26 113.57L305.494 111.153Z" fill="white"/>
<path d="M317.178 157.875L313.76 145.621L305.248 147.991L303.601 142.08L328.015 135.276C331.525 138.616 333.618 142.28 334.757 146.375C335.897 150.454 335.989 154.642 334.711 159.306L310.297 166.111L308.665 160.245L317.178 157.875ZM318.933 144.174L322.35 156.428L329.57 154.426C330.062 152.132 329.985 150.054 329.385 147.868C328.769 145.651 327.753 143.835 326.152 142.157L318.933 144.158V144.174Z" fill="white"/>
<path d="M330.262 174.701L311.113 175.532L310.866 169.851L339.021 168.635L339.283 174.67L320.703 188.648L339.853 187.817L340.099 193.497L311.944 194.713L311.682 188.679L330.262 174.701Z" fill="white"/>
<path d="M308.757 210.723C309.542 206.459 311.359 202.395 314.56 198.731L336.697 202.826C338.375 207.398 338.605 211.847 337.805 216.111C337.02 220.33 335.219 224.394 332.017 228.058L309.881 223.947C308.203 219.375 307.972 214.926 308.757 210.708V210.723ZM314.591 218.544L329.539 221.315C331.032 219.483 331.878 217.389 332.294 215.08C332.725 212.725 332.694 210.477 331.955 208.23L317.008 205.459C315.515 207.29 314.668 209.384 314.237 211.739C313.806 214.049 313.852 216.296 314.576 218.544H314.591Z" fill="white"/>
<path d="M321.272 239.696L303.723 231.983L306.002 226.78L331.817 238.11L329.385 243.637L306.541 247.993L324.089 255.706L321.811 260.909L295.996 249.579L298.428 244.052L321.272 239.696Z" fill="white"/>
<path d="M291.455 276.981L290.285 269.037L285.313 264.789L289.315 260.093L310.759 278.382L306.756 283.077L296.042 273.948L298.905 292.283L294.364 297.609L291.917 283.308L272.182 280.168L276.892 274.641L291.439 276.966L291.455 276.981Z" fill="white"/>
<path d="M254.756 293.422L270.581 280.983L288.006 303.151L283.142 306.969L268.98 288.958L258.019 297.579L254.756 293.422Z" fill="white"/>
<path d="M241.995 299.395C245.905 297.425 250.061 296.563 254.618 296.994L265.994 319.654L260.467 322.425L250.723 303.044C248.568 302.859 246.628 303.336 244.488 304.414C242.349 305.491 240.825 306.754 239.716 308.586L249.461 327.967L243.934 330.738L232.558 308.093C234.929 304.183 238.115 301.366 241.979 299.426L241.995 299.395Z" fill="white"/>
<path d="M217.226 308.709C220.998 307.785 224.384 307.185 227.725 306.831L234.436 334.217C231.542 335.295 228.11 336.465 224.354 337.388C219.058 338.682 214.132 338.682 210.068 337.265L208.036 328.983C209.268 327.382 210.992 326.074 212.885 325.058C210.515 325.073 208.206 324.719 206.22 323.811L204.188 315.528C207.128 312.342 211.854 310.033 217.242 308.709H217.226ZM224.569 319.916L222.783 312.603C221.706 312.727 219.535 313.173 217.904 313.558C214.917 314.281 212.5 315.39 210.869 317.052L211.869 321.132C213.963 321.871 216.734 321.84 219.674 321.132L224.584 319.931L224.569 319.916ZM225.6 324.118L220.921 325.273C218.119 325.966 215.733 327.197 214.348 328.737L215.317 332.724C217.488 333.401 220.043 333.417 222.845 332.724C224.415 332.339 226.416 331.754 227.386 331.385L225.6 324.118Z" fill="white"/>
<path d="M192.535 329.645L177.88 329.414L177.957 324.55L192.612 324.78L192.535 329.645Z" fill="white"/>
<path d="M186.038 301.011C123.617 301.011 72.833 250.225 72.833 187.801C72.833 125.377 123.617 74.5908 186.038 74.5908C248.46 74.5908 299.244 125.377 299.244 187.801C299.244 250.225 248.46 301.011 186.038 301.011ZM186.038 77.6697C125.31 77.6697 75.9118 127.07 75.9118 187.801C75.9118 248.532 125.31 297.933 186.038 297.933C246.767 297.933 296.165 248.532 296.165 187.801C296.165 127.07 246.751 77.6697 186.038 77.6697Z" fill="white"/>
<path d="M186.039 90.5242C132.407 90.5242 88.781 134.152 88.781 187.786C88.781 241.42 132.407 285.048 186.039 285.048C239.67 285.048 283.296 241.42 283.296 187.786C283.296 134.152 239.67 90.5242 186.039 90.5242ZM186.039 92.9873C230.049 92.9873 267.148 123.129 277.77 163.863C274.322 160.322 268.58 157.228 261.237 154.642C248.46 125.777 219.581 105.58 186.039 105.58C152.496 105.58 123.602 125.777 110.84 154.642C103.482 157.243 97.7402 160.322 94.292 163.894C104.914 123.145 142.013 92.9873 186.039 92.9873ZM186.039 255.336C209.052 255.336 229.387 243.76 241.595 226.149C247.706 224.963 253.371 223.562 258.404 221.961C245.566 249.056 217.95 267.837 186.039 267.837C154.127 267.837 126.511 249.056 113.673 221.961C118.706 223.562 124.371 224.963 130.483 226.149C142.69 243.775 163.04 255.352 186.039 255.352V255.336ZM133.084 226.626C149.047 229.505 167.766 230.998 186.039 230.998C204.311 230.998 223.014 229.505 238.978 226.641C227.001 242.913 207.728 253.505 186.039 253.505C164.349 253.505 145.06 242.913 133.084 226.641V226.626ZM245.381 220.022C244.581 220.191 243.78 220.376 242.949 220.545C227.863 223.67 208.39 225.702 186.039 225.702C163.687 225.702 144.183 223.67 129.097 220.545C128.281 220.376 127.465 220.206 126.665 220.022C120.6 218.682 115.32 217.158 110.933 215.527C110.024 215.188 109.132 214.849 108.3 214.495C100.403 211.201 96.0161 207.537 95.9853 204.012C96.0161 201.056 98.9409 197.9 104.159 194.944C104.821 194.575 105.499 194.19 106.237 193.836C108.423 192.743 110.933 191.665 113.734 190.665C114.304 190.865 114.873 191.065 115.458 191.25C116.49 191.573 117.552 191.896 118.645 192.219C119.261 192.404 119.907 192.574 120.538 192.743C138.041 197.531 161.516 200.24 186.054 200.24C210.592 200.24 234.052 197.531 251.539 192.743C252.17 192.574 252.817 192.404 253.432 192.219C254.525 191.896 255.603 191.588 256.634 191.25C257.235 191.065 257.789 190.865 258.358 190.665C261.145 191.665 263.638 192.728 265.824 193.821C266.563 194.19 267.24 194.559 267.902 194.929C273.136 197.9 276.061 201.056 276.107 204.012C276.061 207.552 271.674 211.216 263.761 214.511C262.93 214.865 262.037 215.203 261.129 215.542C256.727 217.174 251.447 218.698 245.397 220.037L245.381 220.022ZM122.801 187.832C139.75 183.322 162.363 180.751 186.039 180.751C209.714 180.751 232.327 183.306 249.276 187.832C232.327 192.343 209.73 194.898 186.039 194.898C162.348 194.898 139.75 192.343 122.801 187.832ZM267.902 180.751C267.24 181.12 266.563 181.505 265.824 181.859C263.638 182.952 261.145 184.014 258.343 185.015C257.773 184.815 257.204 184.63 256.603 184.43C255.572 184.091 254.494 183.783 253.402 183.46C252.786 183.275 252.139 183.106 251.508 182.937C234.005 178.149 210.545 175.44 186.008 175.44C161.47 175.44 137.995 178.164 120.492 182.952C119.861 183.121 119.214 183.291 118.599 183.475C117.521 183.783 116.459 184.107 115.428 184.43C114.827 184.615 114.273 184.815 113.688 185.015C110.886 183.999 108.377 182.937 106.191 181.844C105.452 181.474 104.775 181.105 104.113 180.735C98.9101 177.78 95.9853 174.624 95.9391 171.668C95.9853 168.143 100.357 164.479 108.223 161.2C109.055 160.846 109.947 160.507 110.856 160.168C115.243 158.537 120.523 157.013 126.573 155.658C127.373 155.488 128.174 155.304 129.005 155.134C144.106 152.009 163.61 149.962 185.992 149.962C208.375 149.962 227.863 152.009 242.949 155.134C243.765 155.304 244.581 155.473 245.381 155.658C251.431 156.997 256.711 158.521 261.098 160.153C262.007 160.492 262.899 160.83 263.731 161.184C271.612 164.479 275.999 168.143 276.046 171.668C276.015 174.624 273.075 177.78 267.856 180.751H267.902ZM186.023 120.235C162.963 120.235 142.582 131.843 130.39 149.531C124.279 150.716 118.629 152.117 113.611 153.718C126.434 126.578 154.066 107.735 186.023 107.735C217.981 107.735 245.612 126.562 258.435 153.703C253.417 152.102 247.752 150.701 241.656 149.515C229.464 131.843 209.083 120.235 186.023 120.235ZM239.039 149.038C223.06 146.159 204.326 144.666 186.039 144.666C167.751 144.666 148.986 146.159 133.007 149.038C144.968 132.705 164.272 122.083 186.023 122.083C207.775 122.083 227.063 132.705 239.039 149.038ZM186.023 282.6C142.043 282.6 104.975 252.489 94.3074 211.801C97.7555 215.357 103.497 218.436 110.856 221.022C123.648 249.841 152.511 269.992 186.008 269.992C219.505 269.992 248.368 249.841 261.16 221.038C268.503 218.452 274.245 215.373 277.708 211.832C267.04 252.504 229.972 282.585 186.008 282.585L186.023 282.6Z" fill="white"/>
</g>
</g>
<defs>
<filter id="filter0_f_12_4566" x="-59.7075" y="86.7065" width="685.588" height="494.125" filterUnits="userSpaceOnUse" color-interpolation-filters="sRGB">
<feFlood flood-opacity="0" result="BackgroundImageFix"/>
<feBlend mode="normal" in="SourceGraphic" in2="BackgroundImageFix" result="shape"/>
<feGaussianBlur stdDeviation="62" result="effect1_foregroundBlur_12_4566"/>
</filter>
<filter id="filter1_f_12_4566" x="103.769" y="57.3995" width="454.124" height="409.753" filterUnits="userSpaceOnUse" color-interpolation-filters="sRGB">
<feFlood flood-opacity="0" result="BackgroundImageFix"/>
<feBlend mode="normal" in="SourceGraphic" in2="BackgroundImageFix" result="shape"/>
<feGaussianBlur stdDeviation="28.3429" result="effect1_foregroundBlur_12_4566"/>
</filter>
<linearGradient id="paint0_linear_12_4566" x1="409.397" y1="213.698" x2="275.536" y2="355.301" gradientUnits="userSpaceOnUse">
<stop stop-color="#FB5E4D"/>
<stop offset="1" stop-color="#FB5E4D"/>
</linearGradient>
<clipPath id="clip0_12_4566">
<rect width="372" height="372" rx="186" fill="white"/>
</clipPath>
<clipPath id="clip1_12_4566">
<rect width="308.229" height="304.686" fill="white" transform="translate(31.8857 33.6572)"/>
</clipPath>
</defs>
</svg>
