<svg width="1200" height="348" viewBox="0 0 1200 348" fill="none" xmlns="http://www.w3.org/2000/svg">
<g clip-path="url(#clip0_1_17)">
<rect width="1200" height="348" fill="#191818"/>
<g clip-path="url(#clip1_1_17)">
<rect width="1200" height="750" transform="translate(0 -74)" fill="#1A1818"/>
<g filter="url(#filter0_f_1_17)">
<ellipse cx="626.854" cy="509.492" rx="493.75" ry="272.5" transform="rotate(-6.48121 626.854 509.492)" fill="#67D6F9"/>
</g>
<g filter="url(#filter1_f_1_17)">
<path d="M703.087 611.884C781.411 565.81 807.499 515.401 867.189 446.86C982.41 314.552 994.041 198.695 1116.63 73.1864C1366.75 -182.906 1123.04 869.149 769.081 921.495C546.573 954.402 30.2225 752.839 244.439 684.162C329.99 656.735 385.481 688.82 474.266 675.16C565.893 661.063 623.157 658.902 703.087 611.884Z" fill="url(#paint0_linear_1_17)"/>
</g>
<g filter="url(#filter2_f_1_17)">
<path d="M140.234 314.955C22.0616 322.73 -55.0652 366.351 -130.084 467.839C-282.058 673.437 605.866 738.748 482.208 512.876C404.238 370.46 291.177 305.024 140.234 314.955Z" fill="#67D6F9"/>
</g>
</g>
<path d="M251.347 186.196H199.334V219.985H186V136.714C199.192 128.412 211.928 125.157 225.261 125.157C238.595 125.157 251.488 128.412 264.523 136.714V219.985H251.331V186.196H251.347ZM199.334 174.34H251.347V144.277C242.903 139.528 234.758 137.453 225.261 137.453C215.765 137.453 207.635 139.528 199.334 144.277V174.356V174.34Z" fill="white"/>
<path d="M292.888 147.532V219.985H280.294V127.374H293.486L345.342 199.828V127.374H357.936V219.985H344.901L292.888 147.532Z" fill="white"/>
<path d="M608.615 147.532V219.985H596.021V127.374H609.213L661.069 199.828V127.374H673.663V219.985H660.629L608.615 147.532Z" fill="white"/>
<path d="M742.155 173.161L719.78 198.208V219.985H706.447V127.374H719.78V181.463L767.8 127.374H783.067L751.95 163.523L787.816 219.985H772.108L742.17 173.161H742.155Z" fill="white"/>
<path d="M863.068 219.985H799.797V127.374H813.131V208.13H863.068V219.985Z" fill="white"/>
<path d="M915.679 222.202C901.607 222.202 889.154 218.791 877.157 210.646V127.374H890.49V203.098C897.754 207.847 905.758 209.907 915.679 209.907C925.601 209.907 933.462 207.831 940.727 203.098V127.374H954.06V210.646C942.204 218.649 929.61 222.202 915.679 222.202Z" fill="white"/>
<path d="M1001.91 222.202C989.155 222.202 978.054 221.322 968.117 219.985V127.374C977.598 126.038 988.856 125.157 1001.31 125.157C1017.32 125.157 1031.99 128.27 1044.72 136.714V164.875C1039.09 169.167 1032.43 171.84 1025.6 173.475C1033.31 174.953 1040.71 177.768 1046.64 182.516V210.677C1033.75 219.262 1018.2 222.234 1001.89 222.234L1001.91 222.202ZM981.45 168.412H1002.49C1013.16 168.412 1023.82 166.038 1031.39 161.007V143.664C1022.65 138.333 1012.87 136.4 1001.91 136.4C994.202 136.4 986.497 136.84 981.45 137.437V168.412ZM981.45 178.79V209.907C986.639 210.504 994.784 210.944 1002.65 210.944C1014.2 210.944 1024.42 209.309 1033.32 203.979V186.353C1025.46 181.023 1014.5 178.79 1003.24 178.79H981.466H981.45Z" fill="white"/>
<path d="M579.983 155.472C579.779 135.472 528.08 125 476.994 125C425.909 125 374.194 135.472 373.99 155.472V189.749C373.99 189.749 373.99 189.781 373.99 189.796C373.99 189.812 373.99 189.844 373.99 189.859C374.194 209.86 425.893 220.331 476.994 220.331C528.096 220.331 579.794 209.86 579.983 189.859C579.983 189.859 579.983 189.812 579.983 189.796C579.983 189.781 579.983 189.765 579.983 189.749V155.472ZM476.979 134.434C538.285 134.434 570.408 148.145 570.549 155.535C570.486 158.428 565.926 163.145 553.615 167.673C553.206 167.532 552.813 167.39 552.388 167.265C533.269 161.148 505.784 157.642 476.979 157.642C448.173 157.642 420.704 161.148 401.569 167.265C401.144 167.406 400.751 167.548 400.343 167.673C388.047 163.145 383.471 158.428 383.408 155.535C383.55 148.145 415.673 134.434 476.979 134.434ZM535.832 172.674C519.133 176.259 498.488 178.271 476.979 178.271C455.469 178.271 434.808 176.274 418.126 172.674C434.824 169.089 455.469 167.076 476.979 167.076C498.488 167.076 519.149 169.073 535.832 172.674ZM476.979 210.913C415.673 210.913 383.55 197.202 383.408 189.812C383.471 186.919 388.031 182.202 400.327 177.674C400.736 177.815 401.144 177.957 401.569 178.082C420.689 184.199 448.173 187.705 476.979 187.705C505.784 187.705 533.253 184.199 552.388 178.082C552.813 177.941 553.206 177.815 553.631 177.674C565.926 182.202 570.486 186.919 570.549 189.812C570.408 197.202 538.285 210.913 476.979 210.913Z" fill="white"/>
</g>
<defs>
<filter id="filter0_f_1_17" x="-114.721" y="-16.9983" width="1483.15" height="1052.98" filterUnits="userSpaceOnUse" color-interpolation-filters="sRGB">
<feFlood flood-opacity="0" result="BackgroundImageFix"/>
<feBlend mode="normal" in="SourceGraphic" in2="BackgroundImageFix" result="shape"/>
<feGaussianBlur stdDeviation="125" result="effect1_foregroundBlur_1_17"/>
</filter>
<filter id="filter1_f_1_17" x="-14.8653" y="-175.253" width="1442.23" height="1308.68" filterUnits="userSpaceOnUse" color-interpolation-filters="sRGB">
<feFlood flood-opacity="0" result="BackgroundImageFix"/>
<feBlend mode="normal" in="SourceGraphic" in2="BackgroundImageFix" result="shape"/>
<feGaussianBlur stdDeviation="104.167" result="effect1_foregroundBlur_1_17"/>
</filter>
<filter id="filter2_f_1_17" x="-397.643" y="63.9742" width="1141.71" height="840.792" filterUnits="userSpaceOnUse" color-interpolation-filters="sRGB">
<feFlood flood-opacity="0" result="BackgroundImageFix"/>
<feBlend mode="normal" in="SourceGraphic" in2="BackgroundImageFix" result="shape"/>
<feGaussianBlur stdDeviation="125" result="effect1_foregroundBlur_1_17"/>
</filter>
<linearGradient id="paint0_linear_1_17" x1="942.708" y1="332.884" x2="539.829" y2="759.067" gradientUnits="userSpaceOnUse">
<stop stop-color="#FB5E4D"/>
<stop offset="1" stop-color="#FB5E4D"/>
</linearGradient>
<clipPath id="clip0_1_17">
<rect width="1200" height="348" fill="white"/>
</clipPath>
<clipPath id="clip1_1_17">
<rect width="1200" height="750" fill="white" transform="translate(0 -74)"/>
</clipPath>
</defs>
</svg>
