<svg width="207" height="96" viewBox="0 0 207 96" fill="#FB5E4D" xmlns="http://www.w3.org/2000/svg">
<path d="M206.983 30.6984C206.779 10.6981 155.08 0.226318 103.994 0.226318C52.9086 0.226318 1.19415 10.6981 0.989746 30.6984V64.9756C0.989746 64.9756 0.989746 65.007 0.989746 65.0227C0.989746 65.0384 0.989746 65.0699 0.989746 65.0856C1.19415 85.0859 52.8929 95.5577 103.994 95.5577C155.095 95.5577 206.794 85.0859 206.983 65.0856C206.983 65.0856 206.983 65.0384 206.983 65.0227C206.983 65.007 206.983 64.9913 206.983 64.9756V30.6984ZM103.978 9.6604C165.284 9.6604 197.407 23.3713 197.549 30.7613C197.486 33.6544 192.926 38.3714 180.615 42.8998C180.206 42.7583 179.813 42.6168 179.388 42.491C160.268 36.3746 132.784 32.8682 103.978 32.8682C75.1731 32.8682 47.7042 36.3746 28.5687 42.491C28.1442 42.6325 27.7511 42.774 27.3423 42.8998C15.0465 38.3714 10.471 33.6544 10.4081 30.7613C10.5496 23.3713 42.6727 9.6604 103.978 9.6604ZM162.831 47.8999C146.133 51.4848 125.488 53.4974 103.978 53.4974C82.4688 53.4974 61.8081 51.5005 45.1255 47.8999C61.8239 44.3149 82.4688 42.3023 103.978 42.3023C125.488 42.3023 146.149 44.2992 162.831 47.8999ZM103.978 86.1393C42.6727 86.1393 10.5496 72.4285 10.4081 65.0385C10.471 62.1453 15.0308 57.4283 27.3266 52.8999C27.7354 53.0414 28.1442 53.183 28.5687 53.3087C47.6885 59.4252 75.1731 62.9315 103.978 62.9315C132.784 62.9315 160.253 59.4252 179.388 53.3087C179.813 53.1672 180.206 53.0414 180.63 52.8999C192.926 57.4283 197.486 62.1453 197.549 65.0385C197.407 72.4285 165.284 86.1393 103.978 86.1393Z" fill="#FB5E4D"/>
</svg>
